:SAMPLES-PER-SECOND 30
:FRAME-RANGE 1-4244
:FULLY-SPECIFIED
:DEGREES
3714
root  -30.9827 38.8932 56.4342 116.848 -84.9037 -108.787
RightUpLeg  -30.6157 16.6334 -9.83897
RightLeg  30.9284 0.157391 -0.132926
RightFoot  -9.30474 -0.163102 5.61268
RightToes  -1.33073e-015 0 -3.6325e-017
Spine  12.1862 -3.67375 -3.95116
Spine1  3.73863 -4.58559 2.61586
HEad  13.9176 -42.5338 15.7987
LeftShoulder1  2.13851 -5.82935 -16.9875
LeftArm  -4.13828 2.5781 -51.8045
LeftForeArm  39.4138 1.06673 -11.868
LeftHand  -0.0541106 4.53343 4.5729
RightShoulder  1.35298 0.945045 25.7365
RightArm  -26.5124 14.2528 54.0801
RightForeArm  53.6836 -5.57579 1.76472
RightHand  0.275047 -7.05537 -19.9594
LeftUpLeg  -22.7109 -2.52479 8.83245
LeftLeg  23.8071 -1.14013 -0.204395
LeftFoot  -7.74167 0.205812 -5.07122
LeftToes  2.72522e-012 8.43823e-011 6.24977e-012
3715
root  -30.5711 38.9576 57.3521 160.451 -81.4417 -152.161
RightUpLeg  -28.9491 13.7958 -6.48637
RightLeg  34.4928 -6.40441 -4.95692
RightFoot  -13.3185 -0.0163947 4.28318
RightToes  -1.33073e-015 0 -3.6325e-017
Spine  11.3999 -3.75603 -4.71605
Spine1  3.25425 -4.5663 2.0147
HEad  13.5263 -41.031 15.3179
LeftShoulder1  2.08555 -5.54037 -17.1678
LeftArm  -5.40984 3.27974 -49.4825
LeftForeArm  37.483 0.873159 -11.3687
LeftHand  -0.0538112 4.70422 5.70713
RightShoulder  1.32909 0.908703 25.427
RightArm  -26.9996 13.5636 53.96
RightForeArm  54.2778 -5.52113 1.54729
RightHand  0.203514 -6.7211 -18.8658
LeftUpLeg  -22.2439 -1.09773 6.37653
LeftLeg  22.8834 2.93913 1.70854
LeftFoot  -6.98287 0.215478 -4.56106
LeftToes  2.72522e-012 8.43823e-011 6.24977e-012
3716
root  -30.1867 39.0052 58.2167 175.161 -76.1169 -166.489
RightUpLeg  -26.9267 11.3619 -4.16576
RightLeg  37.2831 -6.78418 -5.769
RightFoot  -15.0096 -0.0122972 2.79094
RightToes  -1.33073e-015 0 -3.6325e-017
Spine  10.3361 -3.84892 -5.30944
Spine1  3.11641 -4.56184 1.4094
HEad  11.9269 -40.1397 16.0824
LeftShoulder1  2.06643 -5.39973 -17.3427
LeftArm  -5.86513 4.30636 -46.972
LeftForeArm  34.3857 0.547042 -11.2092
LeftHand  -0.0579432 4.67322 6.23449
RightShoulder  1.29666 0.819375 25.3131
RightArm  -26.9586 13.3113 53.999
RightForeArm  55.0885 -5.50012 1.5688
RightHand  0.146217 -6.44284 -17.6834
LeftUpLeg  -22.1968 1.78093 3.98753
LeftLeg  21.927 5.75718 2.92117
LeftFoot  -6.15505 0.209635 -3.8128
LeftToes  2.72522e-012 8.43823e-011 6.24977e-012
3717
root  -29.8058 38.9713 59.02 -177.515 -70.4952 -173.361
RightUpLeg  -24.4035 8.32368 -2.79697
RightLeg  38.7769 -4.31707 -3.97526
RightFoot  -17.1838 0.089437 4.03339
RightToes  -1.33073e-015 0 -3.6325e-017
Spine  9.10649 -3.96445 -6.5152
Spine1  3.12441 -4.69148 1.20305
HEad  9.89188 -40.1168 17.3075
LeftShoulder1  2.07868 -5.36874 -17.588
LeftArm  -6.2112 5.63675 -44.5512
LeftForeArm  31.7673 0.537015 -11.0664
LeftHand  -0.0723567 4.36963 6.16995
RightShoulder  1.28741 0.814218 25.1178
RightArm  -27.0765 13.6408 54.4079
RightForeArm  55.9754 -5.44449 1.40259
RightHand  0.11572 -6.24869 -17.5445
LeftUpLeg  -22.8564 4.47382 1.56993
LeftLeg  21.6005 8.57179 4.03863
LeftFoot  -5.5424 0.193706 -3.16736
LeftToes  2.72522e-012 8.43823e-011 6.24977e-012
3718
root  -29.4043 38.9294 59.7998 -174.077 -64.5954 -176.373
RightUpLeg  -21.1878 4.79783 -2.18414
RightLeg  38.8647 -1.46224 -1.52897
RightFoot  -19.2235 0.185929 4.58822
RightToes  -1.33073e-015 0 -3.6325e-017
Spine  8.18202 -4.00503 -7.32543
Spine1  3.1482 -4.77113 1.12132
HEad  7.65548 -40.5771 18.9543
LeftShoulder1  2.06141 -5.29446 -17.5946
LeftArm  -6.24733 6.7078 -42.6766
LeftForeArm  30.5832 1.18128 -11.0098
LeftHand  -0.0847386 4.07576 5.98938
RightShoulder  1.31497 0.903077 25.1175
RightArm  -27.243 14.4181 54.892
RightForeArm  57.1678 -5.36407 1.15078
RightHand  0.111347 -6.20592 -17.7888
LeftUpLeg  -23.5629 5.37146 0.0210595
LeftLeg  21.2489 13.1603 5.70641
LeftFoot  -4.89345 0.19202 -2.88715
LeftToes  2.72522e-012 8.43823e-011 6.24977e-012
3719
root  -28.9868 38.9495 60.5403 -172.11 -58.5453 -177.828
RightUpLeg  -17.7205 0.11358 -2.19598
RightLeg  37.69 -0.258976 -0.474292
RightFoot  -20.5236 0.204573 4.27839
RightToes  -1.33073e-015 0 -3.6325e-017
Spine  7.31179 -3.86321 -7.8781
Spine1  3.30109 -4.70353 1.3061
HEad  5.79987 -41.226 20.6962
LeftShoulder1  2.01225 -5.1667 -17.3569
LeftArm  -6.0106 7.21624 -41.4478
LeftForeArm  30.6671 2.35795 -11.0704
LeftHand  -0.0750413 4.24139 5.77644
RightShoulder  1.31351 0.864982 25.3792
RightArm  -27.5793 15.239 55.6839
RightForeArm  58.9148 -5.24078 0.75949
RightHand  0.0514142 -5.80302 -18.0454
LeftUpLeg  -24.2748 6.56907 -0.996302
LeftLeg  20.5603 17.6497 6.88823
LeftFoot  -3.7724 0.194903 -2.60385
LeftToes  2.72522e-012 8.43823e-011 6.24977e-012
3720
root  -28.5685 39.0022 61.2555 -170.776 -52.2634 -178.498
RightUpLeg  -14.3705 -5.60072 -3.06938
RightLeg  35.341 -0.575445 -0.688382
RightFoot  -21.1268 0.324205 5.45787
RightToes  -1.33073e-015 0 -3.6325e-017
Spine  6.42443 -3.57407 -7.55591
Spine1  3.50981 -4.27898 0.872993
HEad  4.4538 -41.1818 22.0446
LeftShoulder1  1.95192 -5.06385 -16.8903
LeftArm  -5.775 7.14158 -40.666
LeftForeArm  31.3368 3.77841 -11.1555
LeftHand  -0.0489743 4.79027 5.46746
RightShoulder  1.41669 1.16332 25.6123
RightArm  -26.9207 15.641 56.3731
RightForeArm  59.3783 -5.27757 1.06603
RightHand  0.0760712 -5.94466 -18.5229
LeftUpLeg  -24.8907 7.18362 -1.43229
LeftLeg  19.488 23.2617 8.01594
LeftFoot  -2.37241 0.193825 -2.28967
LeftToes  2.72522e-012 8.43823e-011 6.24977e-012
3721
root  -28.1175 39.0434 61.9379 -169.876 -45.8541 -178.557
RightUpLeg  -11.6533 -11.1643 -4.63248
RightLeg  32.7173 -2.15019 -1.728
RightFoot  -21.0046 0.3035 5.27275
RightToes  -1.33073e-015 0 -3.6325e-017
Spine  5.72848 -3.10918 -6.62615
Spine1  3.54798 -3.5693 0.146258
HEad  3.7489 -39.9932 22.6046
LeftShoulder1  1.92002 -5.0286 -16.5811
LeftArm  -5.77792 6.72315 -40.0519
LeftForeArm  31.863 5.12628 -11.1567
LeftHand  -0.0360989 5.07302 4.95659
RightShoulder  1.50679 1.44059 25.6742
RightArm  -26.0596 16.0531 57.3553
RightForeArm  60.3485 -5.31127 1.45641
RightHand  0.0509301 -5.7694 -19.1158
LeftUpLeg  -25.7739 8.13522 -1.32855
LeftLeg  18.7968 28.7028 8.96512
LeftFoot  -0.987091 0.175682 -1.87379
LeftToes  2.72522e-012 8.43823e-011 6.24977e-012
3722
root  -27.635 39.0813 62.5733 -169.133 -39.5735 -178.379
RightUpLeg  -9.57501 -16.3447 -6.58312
RightLeg  29.6902 -4.18977 -2.81052
RightFoot  -19.5227 0.232603 5.10051
RightToes  -1.33073e-015 0 -3.6325e-017
Spine  5.13364 -2.60145 -5.50382
Spine1  3.70727 -2.81281 -0.546996
HEad  3.67099 -37.8661 22.4636
LeftShoulder1  1.8937 -4.98017 -16.3815
LeftArm  -5.69689 5.89358 -39.5235
LeftForeArm  31.8257 6.25808 -11.1945
LeftHand  -0.0297805 5.23775 4.72212
RightShoulder  1.57269 1.65958 25.607
RightArm  -25.5192 16.4683 58.8643
RightForeArm  62.311 -5.26697 1.59347
RightHand  0.0718602 -5.88692 -19.4281
LeftUpLeg  -26.7172 9.84589 -0.925975
LeftLeg  18.2236 33.3419 9.4539
LeftFoot  0.323983 0.14331 -1.42248
LeftToes  2.72522e-012 8.43823e-011 6.24977e-012
3723
root  -27.051 39.0402 63.1892 -168.295 -33.2683 -178.411
RightUpLeg  -8.13046 -20.7046 -8.97859
RightLeg  26.1146 -5.79807 -3.30652
RightFoot  -18.3114 0.169365 4.81706
RightToes  -1.33073e-015 0 -3.6325e-017
Spine  4.668 -2.04887 -4.64137
Spine1  4.21192 -1.95201 -1.54451
HEad  3.5136 -35.2 22.1279
LeftShoulder1  1.8697 -4.92597 -16.2275
LeftArm  -4.97207 4.50248 -38.8793
LeftForeArm  31.2327 6.8935 -11.5262
LeftHand  -0.0270463 5.31575 4.55994
RightShoulder  1.73914 2.22566 25.3844
RightArm  -24.5819 17.0072 60.3681
RightForeArm  64.2525 -5.25924 1.95558
RightHand  0.0892393 -5.98968 -19.4709
LeftUpLeg  -28.1073 12.4917 -0.69011
LeftLeg  18.6336 37.0218 10.1762
LeftFoot  1.37976 0.12246 -1.17379
LeftToes  2.72522e-012 8.43823e-011 6.24977e-012
3724
root  -26.3976 38.9797 63.789 -167.655 -27.3012 -178.163
RightUpLeg  -7.59198 -23.3256 -10.6942
RightLeg  22.7725 -7.77991 -3.783
RightFoot  -16.2527 0.0692009 4.18074
RightToes  -1.33073e-015 0 -3.6325e-017
Spine  4.80684 -1.57482 -3.71096
Spine1  4.25162 -1.26452 -2.20555
HEad  3.56461 -32.236 21.3538
LeftShoulder1  1.84982 -4.84331 -16.2125
LeftArm  -4.6037 2.75509 -38.1482
LeftForeArm  31.399 7.5016 -11.7149
LeftHand  -0.0292919 5.35699 4.54426
RightShoulder  1.87548 2.75663 24.8702
RightArm  -23.6747 17.5943 62.1435
RightForeArm  66.5305 -5.22372 2.2398
RightHand  0.127236 -6.21219 -19.5737
LeftUpLeg  -29.6682 16.8648 -0.705456
LeftLeg  18.9399 38.6682 10.4244
LeftFoot  2.21238 0.0955214 -0.91679
LeftToes  2.72522e-012 8.43823e-011 6.24977e-012
3725
root  -25.6807 38.9073 64.3775 -167.269 -21.8523 -177.706
RightUpLeg  -7.72885 -22.6805 -11.3489
RightLeg  19.8683 -11.8345 -4.90369
RightFoot  -12.9819 -0.0614311 1.85164
RightToes  -1.33073e-015 0 -3.6325e-017
Spine  4.89149 -1.33829 -2.81188
Spine1  4.82517 -0.874922 -2.6304
HEad  3.65087 -28.7672 20.4812
LeftShoulder1  1.87111 -4.95254 -16.1665
LeftArm  -4.14896 0.722563 -37.2775
LeftForeArm  31.4684 7.74247 -12.017
LeftHand  -0.0321828 5.16638 4.49021
RightShoulder  1.98555 3.14786 24.7023
RightArm  -22.814 18.4827 63.6725
RightForeArm  68.9862 -5.16562 2.44676
RightHand  0.168307 -6.46322 -19.4728
LeftUpLeg  -31.1073 21.4826 -0.627594
LeftLeg  18.967 39.6527 10.5388
LeftFoot  3.26688 0.0251298 -0.350633
LeftToes  2.72522e-012 8.43823e-011 6.24977e-012
